<?xml version="1.0" encoding="UTF-8" standalone="no"?>
<!DOCTYPE svg PUBLIC "-//W3C//DTD SVG 1.1//EN" "http://www.w3.org/Graphics/SVG/1.1/DTD/svg11.dtd">
<svg width="100%" height="100%" viewBox="0 0 552 482" version="1.1" xmlns="http://www.w3.org/2000/svg" xmlns:xlink="http://www.w3.org/1999/xlink" xml:space="preserve" xmlns:serif="http://www.serif.com/" style="fill-rule:evenodd;clip-rule:evenodd;stroke-linecap:round;stroke-linejoin:round;stroke-miterlimit:1.5;">
    <g id="icon" transform="matrix(0.716776,0,0,0.759401,-174.650966,-169.031297)">
        <rect x="243.662" y="222.585" width="770.115" height="634.71" style="fill:none;"/>
        <clipPath id="_clip1">
            <rect x="243.662" y="222.585" width="770.115" height="634.71"/>
        </clipPath>
        <g clip-path="url(#_clip1)">
            <g transform="matrix(1.395137,0,0,1.316827,-333.924593,-236.987451)">
                <g transform="matrix(1.863505,0,0,1.88931,-1413.106578,-449.588829)">
                    <path d="M1193.021,506.652C1210.285,509.287 1223.022,523.944 1223.022,541.174L1223.022,642.874C1223.022,662.167 1207.165,677.808 1187.604,677.808L1015.885,677.808C996.325,677.808 980.468,662.167 980.468,642.874L980.468,514.962C980.468,504.764 984.986,495.075 992.836,488.438C1000.686,481.802 1011.084,478.88 1021.302,480.439L1193.021,506.652ZM1190.395,523.39L1018.675,497.177C1013.412,496.374 1008.055,497.879 1004.011,501.298C999.967,504.717 997.64,509.708 997.64,514.962L997.64,642.874C997.64,652.813 1005.808,660.87 1015.885,660.87L1187.605,660.87C1197.681,660.87 1205.85,652.813 1205.85,642.874L1205.85,541.174C1205.85,532.298 1199.288,524.748 1190.395,523.39Z" style="fill:rgb(27,135,255);"/>
                </g>
                <g transform="matrix(1.863505,0,0,1.88931,-1363.106578,-507.921807)">
                    <path d="M985.639,496.786C987.557,493.68 989.975,490.857 992.836,488.438C1000.686,481.802 1011.084,478.88 1021.302,480.439L1193.021,506.652C1210.285,509.287 1223.022,523.944 1223.022,541.174L1223.022,642.874C1223.022,657.613 1213.768,670.22 1200.678,675.351C1203.959,670.053 1205.85,663.827 1205.85,657.165L1205.85,541.174C1205.85,532.298 1199.288,524.748 1190.395,523.39L1179.791,521.771C1178.507,521.425 1177.192,521.148 1175.849,520.943L1004.13,494.73C997.821,493.767 991.443,494.513 985.639,496.786Z" style="fill:rgb(92,91,255);"/>
                </g>
                <g transform="matrix(1.863505,0,0,1.88931,-1313.106578,-557.921807)">
                    <path d="M985.639,496.786C987.557,493.68 989.975,490.857 992.836,488.438C1000.686,481.802 1011.084,478.88 1021.302,480.439L1193.021,506.652C1210.285,509.287 1223.022,523.944 1223.022,541.174L1223.022,642.874C1223.022,657.613 1213.768,670.22 1200.678,675.351C1203.959,670.053 1205.85,663.827 1205.85,657.165L1205.85,541.174C1205.85,532.298 1199.288,524.748 1190.395,523.39L1179.791,521.771C1178.507,521.425 1177.192,521.148 1175.849,520.943L1004.13,494.73C997.821,493.767 991.443,494.513 985.639,496.786Z" style="fill:rgb(142,81,255);"/>
                </g>
                <g transform="matrix(0,1.430779,-1.430779,0,1487.052537,193.379784)">
                    <path d="M312.152,546.155L365.114,637.888L259.19,637.888L312.152,546.155Z" style="fill:rgb(26,135,255);stroke:rgb(26,135,255);stroke-width:20.97px;"/>
                </g>
            </g>
        </g>
    </g>
</svg>
